<svg version="1.1" id="Layer_1" xmlns="http://www.w3.org/2000/svg" xmlns:xlink="http://www.w3.org/1999/xlink" x="0px" y="0px"
	 width="100%" viewBox="0 0 1280 1280" enable-background="new 0 0 1280 1280" xml:space="preserve">
<path fill="#FFFFFF" opacity="1.000000" stroke="none" 
	d="
M1281.000000,467.000000 
	C1281.000000,738.666626 1281.000000,1009.833252 1281.000000,1281.000000 
	C854.333435,1281.000000 427.666931,1281.000000 1.000281,1281.000000 
	C1.000187,854.333557 1.000187,427.667084 1.000094,1.000453 
	C427.666382,1.000302 854.332764,1.000302 1280.999512,1.000151 
	C1281.000000,156.166672 1281.000000,311.333344 1281.000000,467.000000 
M1208.648071,665.374878 
	C1208.712280,641.006714 1208.799805,616.638550 1208.823608,592.270386 
	C1208.829224,586.479370 1208.620850,580.688049 1208.690308,573.989197 
	C1208.711670,573.159607 1208.751953,572.330017 1208.751953,571.500427 
	C1208.752808,425.514740 1208.751343,279.529083 1208.736328,133.543411 
	C1208.736206,132.100403 1208.550659,130.657425 1208.451172,129.206757 
	C1207.349731,129.114090 1206.690918,129.015350 1206.031250,129.009354 
	C1170.734619,128.688080 1135.438354,128.306747 1100.141113,128.084366 
	C1076.810913,127.937363 1053.478882,128.087036 1030.148926,127.929710 
	C1026.480103,127.904968 1024.562500,128.692780 1022.707703,132.396088 
	C1007.862366,162.035706 992.640930,191.487305 977.419861,220.937134 
	C976.741394,222.249802 975.012756,223.780090 973.676819,223.876846 
	C957.307617,225.062546 940.925842,226.104019 924.535706,226.961990 
	C914.244995,227.500687 903.932922,227.619232 893.633972,228.017502 
	C886.841614,228.280167 880.052490,228.654068 873.267273,229.066666 
	C852.092468,230.354294 830.921753,231.710327 809.746277,232.987152 
	C797.847290,233.704620 785.943237,234.338882 774.039429,234.973083 
	C760.963135,235.669739 747.887634,236.393646 734.805969,236.972961 
	C724.679321,237.421402 714.541748,237.617645 704.412659,238.016907 
	C697.617981,238.284729 690.827271,238.672501 684.038818,239.074234 
	C662.208313,240.366104 640.383301,241.754135 618.548645,242.970001 
	C609.263916,243.487030 599.954407,243.551727 590.667603,244.039719 
	C583.067871,244.439056 575.492859,245.308258 567.893127,245.707153 
	C555.701355,246.347092 543.498108,246.770554 530.941040,247.300644 
	C530.941040,221.576843 530.941040,196.483582 530.941040,170.995407 
	C526.206726,170.995407 521.789307,170.995407 516.988281,170.995407 
	C516.988281,163.529739 516.988281,156.450317 516.988281,148.980164 
	C505.185608,148.980164 493.775330,148.980164 482.211975,148.980164 
	C482.211975,131.174240 482.211975,113.770409 482.211975,95.965912 
	C488.161835,95.965912 493.911011,95.965912 500.000610,95.965912 
	C500.000610,93.450699 499.653595,91.251755 500.059052,89.201630 
	C502.106567,78.849174 497.872314,72.809448 488.380890,68.398209 
	C482.857574,65.831192 477.868439,63.662006 471.690674,63.911190 
	C463.038971,64.260162 454.361267,63.917339 445.697876,64.062004 
	C443.826019,64.093262 441.730377,64.540939 440.148315,65.484833 
	C435.658295,68.163734 431.311829,71.102814 427.064026,74.155388 
	C425.885803,75.002068 424.543671,76.569077 424.484009,77.861366 
	C424.209839,83.798759 424.363312,89.755898 424.363312,96.078201 
	C430.827393,96.078201 436.756226,96.078201 442.764984,96.078201 
	C442.764984,113.869652 442.764984,131.273621 442.764984,149.076050 
	C429.793488,149.076050 417.050964,149.076050 403.914673,149.076050 
	C403.914673,156.545532 403.914673,163.626205 403.914673,171.092773 
	C398.776520,171.092773 394.025604,171.092773 389.315552,171.092773 
	C389.315552,233.215652 389.315552,294.935303 389.315552,356.572327 
	C436.694977,356.572327 483.757660,356.572327 530.718933,356.572327 
	C531.199890,348.537628 531.661621,340.823456 532.070007,334.000000 
	C563.452332,334.000000 594.242981,333.899445 625.032715,334.021606 
	C683.658569,334.254211 742.283691,334.692505 800.909607,334.895416 
	C845.571167,335.050018 890.233582,335.011658 934.895386,334.925568 
	C938.462463,334.918701 940.207642,335.754608 941.540894,339.396179 
	C953.217712,371.289612 965.104065,403.107208 977.146545,434.864532 
	C978.348389,438.034027 978.389038,440.456390 976.893188,443.412598 
	C958.444702,479.871582 940.026306,516.346191 921.751160,552.892273 
	C917.691284,561.011047 913.477539,569.183044 910.693420,577.771057 
	C908.159424,585.587524 907.584045,594.025085 905.948303,602.149170 
	C901.354309,624.965637 896.629700,647.755859 892.012512,670.567688 
	C888.333801,688.742920 884.698608,706.927307 881.122192,725.122925 
	C879.590942,732.913208 878.257629,740.742432 876.753052,749.000244 
	C886.935425,749.000244 896.574890,748.895874 906.209778,749.061768 
	C909.225769,749.113708 910.344116,748.195740 911.127197,745.145142 
	C914.428040,732.286194 918.191772,719.546875 921.705933,706.741699 
	C929.511658,678.298523 937.209656,649.825500 945.083130,621.401184 
	C947.370239,613.144348 948.904785,604.371582 952.866577,596.946411 
	C962.891724,578.157471 974.089294,559.993652 984.835083,541.589844 
	C1003.051514,510.391388 1021.327209,479.227234 1039.417847,447.955994 
	C1040.830322,445.514465 1042.263184,444.900024 1044.823364,444.978088 
	C1058.617554,445.398682 1072.419800,445.584930 1086.208618,446.123413 
	C1087.770752,446.184418 1089.779907,447.597504 1090.714355,448.972961 
	C1100.810181,463.834442 1110.650635,478.869965 1120.815796,493.683014 
	C1121.953369,495.340759 1124.642822,496.807465 1126.647461,496.853699 
	C1139.139648,497.141876 1151.641724,496.991516 1164.140503,497.013916 
	C1165.399658,497.016174 1166.658569,497.200928 1167.895508,497.299225 
	C1167.895508,502.660767 1167.895508,507.644409 1167.895508,512.586060 
	C1107.473022,536.575195 1080.332764,599.632507 1099.200439,656.820312 
	C1116.614868,709.603882 1165.700684,736.499268 1208.753174,735.556580 
	C1208.753174,733.955078 1208.753296,732.322449 1208.753174,730.689880 
	C1208.751221,711.025208 1208.761597,691.360596 1208.726440,671.695984 
	C1208.723267,669.887512 1208.429199,668.079590 1208.648071,665.374878 
M808.999878,793.622681 
	C808.666321,863.546387 808.367371,933.470276 807.914673,1003.393188 
	C807.887024,1007.671570 808.886658,1009.164001 813.424438,1009.104797 
	C832.407776,1008.856995 851.396545,1009.059814 870.382446,1008.951172 
	C874.323425,1008.928589 878.369019,1008.741455 882.181091,1007.843384 
	C899.045471,1003.870422 913.508240,995.791382 923.860229,981.552185 
	C935.643677,965.344055 939.727722,947.468262 935.233276,927.649048 
	C932.368042,915.014099 925.742371,904.690002 917.457336,895.745117 
	C921.194885,891.422302 925.042480,887.523071 928.247620,883.152588 
	C935.301392,873.534180 939.090942,862.445740 938.795166,850.671570 
	C938.445251,836.749939 933.979858,823.890015 924.907715,812.889771 
	C913.407959,798.945984 898.684509,790.131287 880.794495,789.266174 
	C858.030518,788.165405 835.172668,789.062988 812.356262,788.924866 
	C809.295715,788.906311 808.608643,790.047058 808.999878,793.622681 
M501.999573,945.500000 
	C501.999573,966.585632 501.999573,987.671265 501.999573,1008.544800 
	C515.695740,1008.544800 528.737244,1008.544800 542.117432,1008.544800 
	C542.117432,976.834290 542.117432,945.577576 542.117432,914.013123 
	C549.928833,914.013123 557.405090,913.741211 564.846252,914.133118 
	C568.327576,914.316467 571.913269,915.373840 575.155090,916.739319 
	C587.445496,921.916138 592.712158,931.994507 592.914673,944.703735 
	C593.233215,964.690674 592.994751,984.686462 593.009705,1004.678467 
	C593.010742,1006.098816 593.155518,1007.519043 593.236755,1008.999084 
	C605.026306,1008.999084 616.354187,1008.835632 627.672974,1009.085205 
	C631.783630,1009.175842 633.211914,1008.065186 633.087158,1003.771790 
	C632.608643,987.300781 632.613464,970.815918 632.166809,954.343628 
	C631.916321,945.105286 631.942261,935.742249 630.384399,926.686340 
	C628.476746,915.596802 622.453552,906.160828 614.773193,897.958984 
	C632.193481,880.922302 639.135620,860.941162 634.006287,837.165588 
	C628.233521,810.407166 601.848999,789.710632 575.272827,789.105225 
	C552.793457,788.593079 530.293213,788.999634 507.802185,788.999634 
	C506.224243,788.999634 504.646271,788.999634 501.999573,788.999634 
	C501.999573,841.309265 501.999573,892.904602 501.999573,945.500000 
M783.000977,874.500000 
	C783.000977,865.001038 783.644592,855.444519 782.801514,846.020935 
	C782.101013,838.190613 781.018616,829.877686 777.747070,822.881165 
	C761.225830,787.549011 718.865601,774.037720 685.364990,794.953552 
	C665.504578,807.353210 655.036804,825.127563 654.993225,848.772583 
	C654.934814,880.429688 654.728821,912.086975 654.822815,943.743469 
	C654.842773,950.471130 654.994629,957.415771 656.600952,963.884155 
	C664.086670,994.026428 695.929260,1017.156372 729.725464,1011.128174 
	C747.225342,1008.006714 760.621887,999.172607 771.230957,985.366638 
	C779.829834,974.176514 783.522827,961.469177 783.407776,947.464539 
	C783.210632,923.476929 783.130371,899.488220 783.000977,874.500000 
M266.927277,921.414246 
	C268.311615,919.390808 269.695953,917.367371 271.345093,914.956848 
	C272.106567,916.482300 272.621216,917.469543 273.097931,918.474670 
	C285.087341,943.755737 297.056976,969.046082 309.072906,994.314514 
	C311.345734,999.094055 312.651917,1005.680725 316.483490,1008.003296 
	C320.546600,1010.466187 327.086975,1008.932007 332.546906,1008.980408 
	C341.291260,1009.057983 350.036804,1009.001221 359.529694,1009.001221 
	C358.685577,1006.845215 358.254272,1005.470398 357.630280,1004.189453 
	C337.684937,963.244507 317.758362,922.290344 297.684082,881.408630 
	C296.180603,878.346741 296.181122,876.203430 298.087219,873.316956 
	C312.747955,851.115967 327.243988,828.806152 341.754120,806.506042 
	C345.406586,800.892700 348.925171,795.192322 352.861481,788.968689 
	C339.524109,788.968689 327.033112,788.878662 314.547424,789.095337 
	C313.161591,789.119385 311.394135,790.605469 310.498566,791.895813 
	C297.654663,810.400818 284.936310,828.992920 272.173279,847.554138 
	C268.375488,853.077271 264.532928,858.569641 260.710876,864.076050 
	C260.381134,863.925964 260.051361,863.775818 259.721619,863.625732 
	C259.721619,838.870789 259.721619,814.115906 259.721619,789.383057 
	C246.627457,789.383057 233.914749,789.383057 220.593384,789.383057 
	C220.593384,862.696167 220.593384,935.598022 220.593384,1009.001282 
	C231.865189,1009.001282 243.160217,1008.801453 254.441864,1009.102661 
	C258.770477,1009.218323 260.159088,1008.127075 260.106049,1003.608704 
	C259.871338,983.613525 260.373566,963.604980 259.869507,943.619873 
	C259.661621,935.378967 261.108276,928.236206 266.927277,921.414246 
M78.458832,883.963196 
	C83.924385,889.931091 88.501160,897.236084 95.043068,901.584778 
	C108.096756,910.262329 122.320404,917.161560 135.873459,925.114624 
	C141.821274,928.604858 148.195435,932.050293 152.805191,936.983765 
	C160.237854,944.938354 158.181442,956.320129 151.565201,964.798401 
	C145.088974,973.097412 133.149200,976.133057 123.852058,971.904114 
	C113.189919,967.054199 108.491554,958.331848 108.163406,946.971924 
	C108.021538,942.060669 108.139626,937.141907 108.139626,932.309692 
	C94.575966,932.309692 81.993362,932.309692 69.059166,932.309692 
	C69.059166,941.123840 67.967766,949.756042 69.256439,958.017029 
	C73.772644,986.967529 97.897438,1009.449280 126.943672,1011.859009 
	C149.199936,1013.705383 168.296326,1006.348999 182.892792,988.698853 
	C196.371338,972.400696 199.960297,953.763123 195.426407,933.622498 
	C191.460617,916.005615 178.755096,905.028564 163.880859,896.525635 
	C151.658020,889.538330 138.821899,883.628235 126.550377,876.720581 
	C113.781479,869.533081 106.525703,860.622498 109.023941,843.361084 
	C110.826614,830.905579 122.607407,822.007019 135.534698,823.028503 
	C147.348404,823.961914 156.911331,834.653625 156.968536,846.962524 
	C157.005722,854.960388 156.935638,862.964111 157.270004,870.950256 
	C157.327988,872.334961 159.137497,874.791199 160.181839,874.814819 
	C172.286316,875.088806 184.399246,874.989868 197.692688,874.989868 
	C196.945953,861.038696 197.637482,847.408752 195.226349,834.351685 
	C189.953659,805.798401 161.583649,784.681030 132.121353,785.708008 
	C105.378799,786.640076 85.623688,798.874451 74.373207,822.749451 
	C64.797997,843.069458 67.420128,863.711792 78.458832,883.963196 
M1185.499878,788.999817 
	C1156.696777,788.999817 1127.893677,788.999817 1098.501221,788.999817 
	C1098.501221,791.141907 1098.512085,792.935547 1098.499268,794.729065 
	C1098.388306,810.213074 1098.197632,825.697021 1098.172607,841.181152 
	C1098.084961,895.499146 1098.101685,949.817505 1097.906250,1004.135010 
	C1097.891357,1008.265137 1099.204224,1009.095825 1103.041382,1009.079651 
	C1136.199951,1008.939392 1169.359497,1009.002808 1202.518677,1008.986206 
	C1203.941895,1008.985535 1205.364990,1008.795471 1206.755371,1008.696045 
	C1206.755371,995.601624 1206.755371,983.004333 1206.755371,969.970032 
	C1183.782959,969.970032 1161.050415,969.970032 1138.236206,969.970032 
	C1138.236206,951.460083 1138.236206,933.391052 1138.236206,914.999756 
	C1143.263184,914.999756 1148.061157,914.999634 1152.859253,914.999756 
	C1169.355591,915.000305 1185.851807,915.006531 1202.348145,914.994202 
	C1204.460571,914.992615 1206.988770,915.517029 1206.992676,912.119141 
	C1207.006714,900.197205 1206.998291,888.275269 1206.998291,875.829224 
	C1183.179932,875.829224 1160.629883,875.829224 1138.354004,875.829224 
	C1138.354004,859.222046 1138.354004,843.150391 1138.354004,826.718201 
	C1161.122314,826.718201 1183.537720,826.718201 1205.844604,826.718201 
	C1205.844604,813.953430 1205.844604,801.562134 1205.844604,788.999817 
	C1199.131958,788.999817 1192.815918,788.999817 1185.499878,788.999817 
M1030.500000,914.999756 
	C1043.245972,914.999756 1055.991943,914.999756 1069.000000,914.999756 
	C1069.000000,902.709656 1068.921997,891.226746 1069.049072,879.746033 
	C1069.085571,876.436584 1067.449585,875.938110 1064.696045,875.963562 
	C1054.699463,876.055847 1044.701416,876.000183 1034.703979,876.000183 
	C1023.256104,876.000244 1011.808167,876.000244 1000.212646,876.000244 
	C1000.212646,859.504517 1000.212646,843.435547 1000.212646,826.951355 
	C1023.157104,826.951355 1045.892212,826.951355 1068.768311,826.951355 
	C1068.768311,814.134583 1068.768311,801.734314 1068.768311,789.226196 
	C1032.804321,789.226196 997.072571,789.226196 960.893433,789.226196 
	C960.893433,862.496460 960.893433,935.540344 960.893433,1008.712036 
	C997.011353,1008.712036 1032.897217,1008.712036 1068.710693,1008.712036 
	C1068.710693,995.684631 1068.710693,982.947449 1068.710693,969.820312 
	C1045.686157,969.820312 1022.948608,969.820312 1000.286621,969.820312 
	C1000.286621,951.354126 1000.286621,933.284790 1000.286621,914.999756 
	C1010.215088,914.999756 1019.857544,914.999756 1030.500000,914.999756 
M440.015961,970.500000 
	C440.018799,953.837830 439.960541,937.175232 440.084747,920.513916 
	C440.105377,917.749817 440.524353,914.852844 441.431213,912.251526 
	C454.427216,874.973267 467.546753,837.738159 480.609467,800.483154 
	C481.878326,796.864319 482.967438,793.182556 484.139282,789.532104 
	C483.092468,789.212097 482.777557,789.032776 482.461914,789.031555 
	C474.632233,789.000061 466.802490,788.977478 458.972748,788.973572 
	C444.637207,788.966370 444.833008,789.027039 440.951477,802.777161 
	C434.303375,826.327942 427.383026,849.801819 420.159027,874.751587 
	C411.738556,845.259033 403.712402,817.147583 395.740509,789.226135 
	C382.383392,789.226135 369.620239,789.226135 356.619171,789.226135 
	C356.908051,790.644714 357.012970,791.808411 357.382599,792.880859 
	C369.170197,827.082642 381.092804,861.238464 392.725952,895.492615 
	C396.207672,905.744629 400.578888,915.624023 400.271729,927.102600 
	C399.590088,952.578308 400.007324,978.083313 399.976990,1003.576416 
	C399.974915,1005.316406 399.976715,1007.056335 399.976715,1008.693604 
	C413.748260,1008.693604 426.676758,1008.693604 440.015961,1008.693604 
	C440.015961,996.089600 440.015961,983.794800 440.015961,970.500000 
M1016.101318,1108.500000 
	C1016.059875,1142.802856 1016.078064,1177.105957 1015.897522,1211.408081 
	C1015.876282,1215.453491 1016.874268,1216.979492 1021.163940,1216.891968 
	C1033.481323,1216.640503 1045.809326,1216.954468 1058.129272,1216.776978 
	C1071.952515,1216.578003 1084.422607,1212.813232 1094.780273,1202.969360 
	C1108.225708,1190.190674 1113.179077,1174.620239 1108.793213,1156.963135 
	C1106.686401,1148.481323 1101.452026,1140.776367 1097.208252,1131.820923 
	C1097.342041,1131.710571 1098.797363,1130.799438 1099.886963,1129.565430 
	C1109.672363,1118.483521 1113.992310,1105.851929 1110.535767,1091.091797 
	C1105.683105,1070.369873 1086.347290,1055.027710 1065.015747,1054.998535 
	C1050.361694,1054.978516 1035.707764,1054.994019 1021.053711,1055.019653 
	C1019.783264,1055.021851 1018.513245,1055.217651 1016.101196,1055.418579 
	C1016.101196,1072.948975 1016.101196,1090.224487 1016.101318,1108.500000 
M402.500000,138.000488 
	C410.931732,138.000488 419.363434,138.000488 427.707825,138.000488 
	C427.707825,127.348808 427.707825,117.275879 427.707825,107.288681 
	C307.349304,107.288681 187.283020,107.288681 67.291847,107.288681 
	C67.291847,117.653030 67.291847,127.725975 67.291847,138.000488 
	C178.889160,138.000488 290.194580,138.000488 402.500000,138.000488 
M593.999573,1129.500000 
	C593.999573,1158.414673 593.999573,1187.329224 593.999573,1216.698364 
	C602.830017,1216.698364 611.455261,1216.688354 620.080444,1216.703857 
	C622.976624,1216.709106 623.037781,1214.835938 623.024414,1212.654663 
	C622.967163,1203.327637 623.001282,1193.999878 623.001587,1184.672485 
	C623.001892,1172.231812 623.001648,1159.791138 623.001648,1147.003296 
	C629.059265,1147.003296 634.753296,1146.451050 640.290039,1147.148315 
	C646.675537,1147.952515 652.955261,1150.097778 655.979797,1156.560913 
	C657.793030,1160.435669 659.702515,1164.710449 659.819702,1168.854858 
	C660.265503,1184.620361 659.999451,1200.406006 659.999451,1216.316895 
	C669.860840,1216.316895 679.252380,1216.316895 689.001160,1216.316895 
	C689.001160,1200.635132 688.793579,1185.330688 689.064026,1170.034668 
	C689.298645,1156.767334 685.409912,1145.224365 675.651062,1134.856567 
	C676.763062,1134.087524 678.047546,1133.493286 678.942688,1132.535156 
	C689.600891,1121.127441 693.484070,1107.202637 690.642517,1092.363159 
	C686.357666,1069.986450 666.214355,1055.354980 644.432251,1055.042114 
	C629.111755,1054.822021 613.785522,1054.993164 598.461853,1055.009399 
	C597.029968,1055.010986 595.598145,1055.153564 593.999573,1055.239624 
	C593.999573,1079.900635 593.999573,1104.200317 593.999573,1129.500000 
M552.500000,138.038925 
	C653.568909,138.038925 754.637756,138.038925 855.732300,138.038925 
	C855.732300,127.329063 855.732300,117.412071 855.732300,107.289062 
	C735.716248,107.289062 615.998779,107.289062 496.130524,107.289062 
	C496.130524,117.619804 496.130524,127.640327 496.130524,138.038940 
	C514.890320,138.038940 533.195129,138.038940 552.500000,138.038925 
M705.072876,1125.499390 
	C705.048462,1140.495361 704.930664,1155.492310 705.060852,1170.486938 
	C705.096436,1174.588989 705.388733,1178.808716 706.394409,1182.763062 
	C712.221375,1205.672852 736.062439,1222.491455 760.515442,1218.210327 
	C781.378418,1214.557617 799.997864,1195.396118 799.999817,1172.164673 
	C800.001709,1149.169922 800.060059,1126.175049 799.946960,1103.180786 
	C799.924194,1098.555298 799.878601,1093.773193 798.762573,1089.335083 
	C791.098206,1058.856323 760.255371,1044.338745 732.312317,1057.273438 
	C716.458557,1064.612061 706.757812,1077.355713 705.977234,1095.581055 
	C705.564636,1105.215332 705.383484,1114.859619 705.072876,1125.499390 
M1197.994873,1138.458496 
	C1195.347778,1136.783203 1192.783325,1134.956421 1190.038818,1133.459839 
	C1180.461304,1128.237183 1170.654541,1123.412964 1161.252930,1117.895508 
	C1152.072021,1112.507568 1148.395996,1102.034668 1151.585693,1092.517456 
	C1154.142578,1084.888550 1163.377075,1078.830200 1170.492920,1080.113037 
	C1179.869507,1081.803589 1185.923218,1088.746460 1185.958618,1097.899414 
	C1185.984009,1104.496094 1185.963501,1111.092896 1185.963501,1117.785889 
	C1196.518188,1117.785889 1205.726685,1117.785889 1214.804321,1117.785889 
	C1214.804321,1108.057861 1216.328979,1098.448242 1214.516235,1089.516113 
	C1209.245728,1063.547974 1183.353760,1047.970581 1157.482300,1054.017334 
	C1132.144897,1059.939331 1117.253174,1084.233154 1122.706665,1109.674805 
	C1126.317383,1126.519531 1136.786865,1137.155151 1151.373169,1144.815552 
	C1160.449707,1149.582275 1169.541992,1154.367676 1178.264404,1159.734375 
	C1181.307251,1161.606567 1184.393555,1164.871460 1185.479614,1168.155396 
	C1187.718628,1174.925537 1185.660767,1181.433838 1180.205200,1186.147583 
	C1174.694824,1190.908569 1168.287354,1192.448242 1161.328247,1189.062500 
	C1154.823242,1185.897705 1151.000977,1180.951172 1151.014404,1173.467163 
	C1151.020142,1170.302002 1150.925049,1167.134399 1151.023682,1163.972412 
	C1151.106934,1161.305664 1150.156128,1159.939209 1147.296265,1159.968018 
	C1139.634033,1160.045044 1131.965576,1159.864380 1124.312988,1160.147949 
	C1123.171753,1160.190186 1121.198853,1162.136841 1121.136841,1163.285034 
	C1120.272705,1179.271729 1123.625732,1193.682983 1135.723511,1205.444336 
	C1156.731445,1225.868286 1191.259766,1222.759888 1207.734131,1198.510864 
	C1221.071777,1178.879028 1217.970825,1152.076050 1197.994873,1138.458496 
M386.003296,1191.625610 
	C384.583405,1199.838989 383.163483,1208.052368 381.668732,1216.698853 
	C391.022736,1216.698853 399.336151,1216.659912 407.648773,1216.721924 
	C410.233368,1216.741211 410.873596,1215.625122 411.102814,1213.111572 
	C411.557007,1208.130981 412.594086,1203.203613 413.379395,1198.321533 
	C424.377869,1198.321533 435.000305,1198.321533 445.881592,1198.321533 
	C446.612671,1203.471191 447.161621,1208.499756 448.144989,1213.441895 
	C448.388824,1214.667480 450.013977,1216.514771 451.048798,1216.544922 
	C459.650055,1216.795654 468.261780,1216.687012 477.708984,1216.687012 
	C467.952911,1162.356934 458.324707,1108.739014 448.674622,1054.999146 
	C437.127930,1054.999146 425.975159,1055.061646 414.823944,1054.955688 
	C411.989655,1054.928711 411.365906,1056.166504 410.915771,1058.762573 
	C407.995605,1075.605469 404.876190,1092.414185 401.737915,1109.218506 
	C398.540741,1126.338379 395.269623,1143.444458 391.986877,1160.548096 
	C390.052856,1170.624512 388.033356,1180.684570 386.003296,1191.625610 
M930.044861,1216.794922 
	C934.247192,1217.343384 934.429016,1214.077515 934.942932,1211.398804 
	C935.500488,1208.492798 935.650757,1205.511230 936.061646,1202.574097 
	C936.466125,1199.682739 937.459534,1197.916870 941.127136,1198.069580 
	C949.109558,1198.401489 957.117859,1198.218262 965.112976,1198.087646 
	C968.241089,1198.036621 970.007629,1198.579712 970.073853,1202.403687 
	C970.138672,1206.143188 971.041870,1209.929321 972.063049,1213.558105 
	C972.426758,1214.850708 974.183228,1216.627686 975.360840,1216.671997 
	C982.847412,1216.953735 990.350220,1216.773071 997.846985,1216.831787 
	C1000.645020,1216.853638 1001.248169,1215.501953 1000.802185,1213.022827 
	C996.129944,1187.055664 991.509277,1161.079224 986.839661,1135.111450 
	C982.257935,1109.632446 977.681946,1084.152222 972.908875,1058.708862 
	C972.645935,1057.307373 970.623779,1055.209106 969.378052,1055.178833 
	C958.087891,1054.903931 946.788269,1055.017822 935.236755,1055.017822 
	C925.170227,1108.801514 915.168884,1162.236938 904.958801,1216.787354 
	C913.348511,1216.787354 921.237976,1216.787354 930.044861,1216.794922 
M492.998779,1165.500000 
	C492.998779,1182.421021 492.998779,1199.342041 492.998779,1216.320557 
	C519.412048,1216.320557 545.602661,1216.320557 571.706238,1216.320557 
	C571.706238,1206.687256 571.706238,1197.440063 571.706238,1187.812256 
	C555.013245,1187.812256 538.612793,1187.812256 522.392456,1187.812256 
	C522.392456,1174.045654 522.392456,1160.670898 522.392456,1147.040405 
	C539.049011,1147.040405 555.315796,1147.040405 571.644653,1147.040405 
	C571.644653,1137.570679 571.644653,1128.371826 571.644653,1118.749268 
	C554.895325,1118.749268 538.499695,1118.749268 522.338379,1118.749268 
	C522.338379,1106.581299 522.338379,1094.846313 522.338379,1082.730469 
	C539.073914,1082.730469 555.474182,1082.730469 571.671509,1082.730469 
	C571.671509,1073.266235 571.671509,1064.195923 571.671509,1055.312012 
	C545.281616,1055.312012 519.222351,1055.312012 492.998779,1055.312012 
	C492.998779,1091.916626 492.998779,1128.208252 492.998779,1165.500000 
M834.505371,1216.794067 
	C853.989380,1216.793823 873.473877,1216.857178 892.956299,1216.680664 
	C894.637329,1216.665527 897.715942,1215.123169 897.756836,1214.185913 
	C898.131348,1205.606323 897.977051,1197.003784 897.977051,1187.941162 
	C880.746277,1187.941162 864.173218,1187.941162 846.997437,1187.941162 
	C846.997437,1143.447021 846.997437,1099.429321 846.997437,1055.445312 
	C837.009888,1055.445312 827.643555,1055.445312 817.958801,1055.445312 
	C817.958801,1057.410522 817.958740,1058.890015 817.958740,1060.369629 
	C817.958435,1109.995483 817.958008,1159.621460 817.958496,1209.247314 
	C817.958557,1210.579590 817.529541,1212.144775 818.082092,1213.187134 
	C818.832092,1214.601929 820.237549,1216.491577 821.536865,1216.639282 
	C825.482178,1217.088013 829.511597,1216.796875 834.505371,1216.794067 
z"/>
<path fill="#000000" opacity="1.000000" stroke="none" 
	d="
M1208.270142,666.271423 
	C1208.429199,668.079590 1208.723267,669.887512 1208.726440,671.695984 
	C1208.761597,691.360596 1208.751221,711.025208 1208.753174,730.689880 
	C1208.753296,732.322449 1208.753174,733.955078 1208.753174,735.556580 
	C1165.700684,736.499268 1116.614868,709.603882 1099.200439,656.820312 
	C1080.332764,599.632507 1107.473022,536.575195 1167.895508,512.586060 
	C1167.895508,507.644409 1167.895508,502.660767 1167.895508,497.299225 
	C1166.658569,497.200928 1165.399658,497.016174 1164.140503,497.013916 
	C1151.641724,496.991516 1139.139648,497.141876 1126.647461,496.853699 
	C1124.642822,496.807465 1121.953369,495.340759 1120.815796,493.683014 
	C1110.650635,478.869965 1100.810181,463.834442 1090.714355,448.972961 
	C1089.779907,447.597504 1087.770752,446.184418 1086.208618,446.123413 
	C1072.419800,445.584930 1058.617554,445.398682 1044.823364,444.978088 
	C1042.263184,444.900024 1040.830322,445.514465 1039.417847,447.955994 
	C1021.327209,479.227234 1003.051514,510.391388 984.835083,541.589844 
	C974.089294,559.993652 962.891724,578.157471 952.866577,596.946411 
	C948.904785,604.371582 947.370239,613.144348 945.083130,621.401184 
	C937.209656,649.825500 929.511658,678.298523 921.705933,706.741699 
	C918.191772,719.546875 914.428040,732.286194 911.127197,745.145142 
	C910.344116,748.195740 909.225769,749.113708 906.209778,749.061768 
	C896.574890,748.895874 886.935425,749.000244 876.753052,749.000244 
	C878.257629,740.742432 879.590942,732.913208 881.122192,725.122925 
	C884.698608,706.927307 888.333801,688.742920 892.012512,670.567688 
	C896.629700,647.755859 901.354309,624.965637 905.948303,602.149170 
	C907.584045,594.025085 908.159424,585.587524 910.693420,577.771057 
	C913.477539,569.183044 917.691284,561.011047 921.751160,552.892273 
	C940.026306,516.346191 958.444702,479.871582 976.893188,443.412598 
	C978.389038,440.456390 978.348389,438.034027 977.146545,434.864532 
	C965.104065,403.107208 953.217712,371.289612 941.540894,339.396179 
	C940.207642,335.754608 938.462463,334.918701 934.895386,334.925568 
	C890.233582,335.011658 845.571167,335.050018 800.909607,334.895416 
	C742.283691,334.692505 683.658569,334.254211 625.032715,334.021606 
	C594.242981,333.899445 563.452332,334.000000 532.070007,334.000000 
	C531.661621,340.823456 531.199890,348.537628 530.718933,356.572327 
	C483.757660,356.572327 436.694977,356.572327 389.315552,356.572327 
	C389.315552,294.935303 389.315552,233.215652 389.315552,171.092773 
	C394.025604,171.092773 398.776520,171.092773 403.914673,171.092773 
	C403.914673,163.626205 403.914673,156.545532 403.914673,149.076050 
	C417.050964,149.076050 429.793488,149.076050 442.764984,149.076050 
	C442.764984,131.273621 442.764984,113.869652 442.764984,96.078201 
	C436.756226,96.078201 430.827393,96.078201 424.363312,96.078201 
	C424.363312,89.755898 424.209839,83.798759 424.484009,77.861366 
	C424.543671,76.569077 425.885803,75.002068 427.064026,74.155388 
	C431.311829,71.102814 435.658295,68.163734 440.148315,65.484833 
	C441.730377,64.540939 443.826019,64.093262 445.697876,64.062004 
	C454.361267,63.917339 463.038971,64.260162 471.690674,63.911190 
	C477.868439,63.662006 482.857574,65.831192 488.380890,68.398209 
	C497.872314,72.809448 502.106567,78.849174 500.059052,89.201630 
	C499.653595,91.251755 500.000610,93.450699 500.000610,95.965912 
	C493.911011,95.965912 488.161835,95.965912 482.211975,95.965912 
	C482.211975,113.770409 482.211975,131.174240 482.211975,148.980164 
	C493.775330,148.980164 505.185608,148.980164 516.988281,148.980164 
	C516.988281,156.450317 516.988281,163.529739 516.988281,170.995407 
	C521.789307,170.995407 526.206726,170.995407 530.941040,170.995407 
	C530.941040,196.483582 530.941040,221.576843 530.941040,247.300644 
	C543.498108,246.770554 555.701355,246.347092 567.893127,245.707153 
	C575.492859,245.308258 583.067871,244.439056 590.667603,244.039719 
	C599.954407,243.551727 609.263916,243.487030 618.548645,242.970001 
	C640.383301,241.754135 662.208313,240.366104 684.038818,239.074234 
	C690.827271,238.672501 697.617981,238.284729 704.412659,238.016907 
	C714.541748,237.617645 724.679321,237.421402 734.805969,236.972961 
	C747.887634,236.393646 760.963135,235.669739 774.039429,234.973083 
	C785.943237,234.338882 797.847290,233.704620 809.746277,232.987152 
	C830.921753,231.710327 852.092468,230.354294 873.267273,229.066666 
	C880.052490,228.654068 886.841614,228.280167 893.633972,228.017502 
	C903.932922,227.619232 914.244995,227.500687 924.535706,226.961990 
	C940.925842,226.104019 957.307617,225.062546 973.676819,223.876846 
	C975.012756,223.780090 976.741394,222.249802 977.419861,220.937134 
	C992.640930,191.487305 1007.862366,162.035706 1022.707703,132.396088 
	C1024.562500,128.692780 1026.480103,127.904968 1030.148926,127.929710 
	C1053.478882,128.087036 1076.810913,127.937363 1100.141113,128.084366 
	C1135.438354,128.306747 1170.734619,128.688080 1206.031250,129.009354 
	C1206.690918,129.015350 1207.349731,129.114090 1208.451172,129.206757 
	C1208.550659,130.657425 1208.736206,132.100403 1208.736328,133.543411 
	C1208.751343,279.529083 1208.752808,425.514740 1208.751953,571.500427 
	C1208.751953,572.330017 1208.711670,573.159607 1208.267090,574.461548 
	C1196.156006,581.649719 1184.418213,588.281433 1172.836548,595.175598 
	C1171.170654,596.167236 1169.199463,598.399780 1169.162476,600.097229 
	C1168.865479,613.720032 1168.926880,627.353149 1169.109741,640.980042 
	C1169.128784,642.394470 1170.305298,644.377869 1171.532104,645.100952 
	C1183.707153,652.278015 1196.006226,659.245056 1208.270142,666.271423 
z"/>
<path fill="#000000" opacity="1.000000" stroke="none" 
	d="
M808.999878,793.137268 
	C808.608643,790.047058 809.295715,788.906311 812.356262,788.924866 
	C835.172668,789.062988 858.030518,788.165405 880.794495,789.266174 
	C898.684509,790.131287 913.407959,798.945984 924.907715,812.889771 
	C933.979858,823.890015 938.445251,836.749939 938.795166,850.671570 
	C939.090942,862.445740 935.301392,873.534180 928.247620,883.152588 
	C925.042480,887.523071 921.194885,891.422302 917.457336,895.745117 
	C925.742371,904.690002 932.368042,915.014099 935.233276,927.649048 
	C939.727722,947.468262 935.643677,965.344055 923.860229,981.552185 
	C913.508240,995.791382 899.045471,1003.870422 882.181091,1007.843384 
	C878.369019,1008.741455 874.323425,1008.928589 870.382446,1008.951172 
	C851.396545,1009.059814 832.407776,1008.856995 813.424438,1009.104797 
	C808.886658,1009.164001 807.887024,1007.671570 807.914673,1003.393188 
	C808.367371,933.470276 808.666321,863.546387 808.999878,793.137268 
M893.063538,956.408264 
	C902.642456,941.196655 895.012329,921.169128 878.137207,916.318848 
	C868.748169,913.620178 858.440735,914.116394 848.239990,913.143494 
	C848.239990,932.962036 848.239990,951.325378 848.239990,970.000305 
	C855.592651,970.000305 862.709351,970.053528 869.824951,969.987427 
	C879.808655,969.894592 887.118164,965.032654 893.063538,956.408264 
M898.996704,848.836731 
	C896.909424,837.953552 890.833252,829.366394 880.095032,827.446594 
	C869.880615,825.620483 859.083618,827.053345 848.492798,827.053345 
	C848.492798,843.121643 848.492798,859.476196 848.492798,876.004944 
	C856.812561,876.004944 864.800903,875.738770 872.765442,876.061340 
	C888.489624,876.698303 899.483887,862.779358 898.996704,848.836731 
z"/>
<path fill="#000000" opacity="1.000000" stroke="none" 
	d="
M501.999573,945.000000 
	C501.999573,892.904602 501.999573,841.309265 501.999573,788.999634 
	C504.646271,788.999634 506.224243,788.999634 507.802185,788.999634 
	C530.293213,788.999634 552.793457,788.593079 575.272827,789.105225 
	C601.848999,789.710632 628.233521,810.407166 634.006287,837.165588 
	C639.135620,860.941162 632.193481,880.922302 614.773193,897.958984 
	C622.453552,906.160828 628.476746,915.596802 630.384399,926.686340 
	C631.942261,935.742249 631.916321,945.105286 632.166809,954.343628 
	C632.613464,970.815918 632.608643,987.300781 633.087158,1003.771790 
	C633.211914,1008.065186 631.783630,1009.175842 627.672974,1009.085205 
	C616.354187,1008.835632 605.026306,1008.999084 593.236755,1008.999084 
	C593.155518,1007.519043 593.010742,1006.098816 593.009705,1004.678467 
	C592.994751,984.686462 593.233215,964.690674 592.914673,944.703735 
	C592.712158,931.994507 587.445496,921.916138 575.155090,916.739319 
	C571.913269,915.373840 568.327576,914.316467 564.846252,914.133118 
	C557.405090,913.741211 549.928833,914.013123 542.117432,914.013123 
	C542.117432,945.577576 542.117432,976.834290 542.117432,1008.544800 
	C528.737244,1008.544800 515.695740,1008.544800 501.999573,1008.544800 
	C501.999573,987.671265 501.999573,966.585632 501.999573,945.000000 
M564.481445,876.000061 
	C568.458496,875.903320 572.578857,876.443909 576.385193,875.588135 
	C587.010620,873.199219 595.746948,863.196411 596.000244,853.922729 
	C596.360535,840.726562 590.545471,830.547058 577.920532,828.384399 
	C566.309875,826.395569 554.090332,827.961670 542.297363,827.961670 
	C542.297363,843.710449 542.297363,859.756958 542.297363,876.000061 
	C549.558167,876.000061 556.522644,876.000061 564.481445,876.000061 
z"/>
<path fill="#010101" opacity="1.000000" stroke="none" 
	d="
M783.000977,875.000000 
	C783.130371,899.488220 783.210632,923.476929 783.407776,947.464539 
	C783.522827,961.469177 779.829834,974.176514 771.230957,985.366638 
	C760.621887,999.172607 747.225342,1008.006714 729.725464,1011.128174 
	C695.929260,1017.156372 664.086670,994.026428 656.600952,963.884155 
	C654.994629,957.415771 654.842773,950.471130 654.822815,943.743469 
	C654.728821,912.086975 654.934814,880.429688 654.993225,848.772583 
	C655.036804,825.127563 665.504578,807.353210 685.364990,794.953552 
	C718.865601,774.037720 761.225830,787.549011 777.747070,822.881165 
	C781.018616,829.877686 782.101013,838.190613 782.801514,846.020935 
	C783.644592,855.444519 783.000977,865.001038 783.000977,875.000000 
M743.000000,848.615417 
	C743.793091,841.657288 741.329468,835.794006 736.755798,830.754456 
	C731.034607,824.450623 721.171936,820.951477 711.178589,824.520874 
	C701.902405,827.834045 695.034424,836.551514 695.023071,845.298950 
	C694.977356,880.610657 694.962524,915.922607 695.020081,951.234253 
	C695.039490,963.124451 708.264526,975.194397 720.064697,973.946411 
	C734.208313,972.450623 743.872681,961.472656 743.882874,947.907166 
	C743.907471,915.135193 743.332886,882.362732 743.000000,848.615417 
z"/>
<path fill="#1DBFC7" opacity="1.000000" stroke="none" 
	d="
M266.714722,921.706848 
	C261.108276,928.236206 259.661621,935.378967 259.869507,943.619873 
	C260.373566,963.604980 259.871338,983.613525 260.106049,1003.608704 
	C260.159088,1008.127075 258.770477,1009.218323 254.441864,1009.102661 
	C243.160217,1008.801453 231.865189,1009.001282 220.593384,1009.001282 
	C220.593384,935.598022 220.593384,862.696167 220.593384,789.383057 
	C233.914749,789.383057 246.627457,789.383057 259.721619,789.383057 
	C259.721619,814.115906 259.721619,838.870789 259.721619,863.625732 
	C260.051361,863.775818 260.381134,863.925964 260.710876,864.076050 
	C264.532928,858.569641 268.375488,853.077271 272.173279,847.554138 
	C284.936310,828.992920 297.654663,810.400818 310.498566,791.895813 
	C311.394135,790.605469 313.161591,789.119385 314.547424,789.095337 
	C327.033112,788.878662 339.524109,788.968689 352.861481,788.968689 
	C348.925171,795.192322 345.406586,800.892700 341.754120,806.506042 
	C327.243988,828.806152 312.747955,851.115967 298.087219,873.316956 
	C296.181122,876.203430 296.180603,878.346741 297.684082,881.408630 
	C317.758362,922.290344 337.684937,963.244507 357.630280,1004.189453 
	C358.254272,1005.470398 358.685577,1006.845215 359.529694,1009.001221 
	C350.036804,1009.001221 341.291260,1009.057983 332.546906,1008.980408 
	C327.086975,1008.932007 320.546600,1010.466187 316.483490,1008.003296 
	C312.651917,1005.680725 311.345734,999.094055 309.072906,994.314514 
	C297.056976,969.046082 285.087341,943.755737 273.097931,918.474670 
	C272.621216,917.469543 272.106567,916.482300 271.345093,914.956848 
	C269.695953,917.367371 268.311615,919.390808 266.714722,921.706848 
z"/>
<path fill="#1DBFC7" opacity="1.000000" stroke="none" 
	d="
M78.255264,883.654907 
	C67.420128,863.711792 64.797997,843.069458 74.373207,822.749451 
	C85.623688,798.874451 105.378799,786.640076 132.121353,785.708008 
	C161.583649,784.681030 189.953659,805.798401 195.226349,834.351685 
	C197.637482,847.408752 196.945953,861.038696 197.692688,874.989868 
	C184.399246,874.989868 172.286316,875.088806 160.181839,874.814819 
	C159.137497,874.791199 157.327988,872.334961 157.270004,870.950256 
	C156.935638,862.964111 157.005722,854.960388 156.968536,846.962524 
	C156.911331,834.653625 147.348404,823.961914 135.534698,823.028503 
	C122.607407,822.007019 110.826614,830.905579 109.023941,843.361084 
	C106.525703,860.622498 113.781479,869.533081 126.550377,876.720581 
	C138.821899,883.628235 151.658020,889.538330 163.880859,896.525635 
	C178.755096,905.028564 191.460617,916.005615 195.426407,933.622498 
	C199.960297,953.763123 196.371338,972.400696 182.892792,988.698853 
	C168.296326,1006.348999 149.199936,1013.705383 126.943672,1011.859009 
	C97.897438,1009.449280 73.772644,986.967529 69.256439,958.017029 
	C67.967766,949.756042 69.059166,941.123840 69.059166,932.309692 
	C81.993362,932.309692 94.575966,932.309692 108.139626,932.309692 
	C108.139626,937.141907 108.021538,942.060669 108.163406,946.971924 
	C108.491554,958.331848 113.189919,967.054199 123.852058,971.904114 
	C133.149200,976.133057 145.088974,973.097412 151.565201,964.798401 
	C158.181442,956.320129 160.237854,944.938354 152.805191,936.983765 
	C148.195435,932.050293 141.821274,928.604858 135.873459,925.114624 
	C122.320404,917.161560 108.096756,910.262329 95.043068,901.584778 
	C88.501160,897.236084 83.924385,889.931091 78.255264,883.654907 
z"/>
<path fill="#000000" opacity="1.000000" stroke="none" 
	d="
M1185.999756,788.999817 
	C1192.815918,788.999817 1199.131958,788.999817 1205.844604,788.999817 
	C1205.844604,801.562134 1205.844604,813.953430 1205.844604,826.718201 
	C1183.537720,826.718201 1161.122314,826.718201 1138.354004,826.718201 
	C1138.354004,843.150391 1138.354004,859.222046 1138.354004,875.829224 
	C1160.629883,875.829224 1183.179932,875.829224 1206.998291,875.829224 
	C1206.998291,888.275269 1207.006714,900.197205 1206.992676,912.119141 
	C1206.988770,915.517029 1204.460571,914.992615 1202.348145,914.994202 
	C1185.851807,915.006531 1169.355591,915.000305 1152.859253,914.999756 
	C1148.061157,914.999634 1143.263184,914.999756 1138.236206,914.999756 
	C1138.236206,933.391052 1138.236206,951.460083 1138.236206,969.970032 
	C1161.050415,969.970032 1183.782959,969.970032 1206.755371,969.970032 
	C1206.755371,983.004333 1206.755371,995.601624 1206.755371,1008.696045 
	C1205.364990,1008.795471 1203.941895,1008.985535 1202.518677,1008.986206 
	C1169.359497,1009.002808 1136.199951,1008.939392 1103.041382,1009.079651 
	C1099.204224,1009.095825 1097.891357,1008.265137 1097.906250,1004.135010 
	C1098.101685,949.817505 1098.084961,895.499146 1098.172607,841.181152 
	C1098.197632,825.697021 1098.388306,810.213074 1098.499268,794.729065 
	C1098.512085,792.935547 1098.501221,791.141907 1098.501221,788.999817 
	C1127.893677,788.999817 1156.696777,788.999817 1185.999756,788.999817 
z"/>
<path fill="#000000" opacity="1.000000" stroke="none" 
	d="
M1030.000000,914.999756 
	C1019.857544,914.999756 1010.215088,914.999756 1000.286621,914.999756 
	C1000.286621,933.284790 1000.286621,951.354126 1000.286621,969.820312 
	C1022.948608,969.820312 1045.686157,969.820312 1068.710693,969.820312 
	C1068.710693,982.947449 1068.710693,995.684631 1068.710693,1008.712036 
	C1032.897217,1008.712036 997.011353,1008.712036 960.893433,1008.712036 
	C960.893433,935.540344 960.893433,862.496460 960.893433,789.226196 
	C997.072571,789.226196 1032.804321,789.226196 1068.768311,789.226196 
	C1068.768311,801.734314 1068.768311,814.134583 1068.768311,826.951355 
	C1045.892212,826.951355 1023.157104,826.951355 1000.212646,826.951355 
	C1000.212646,843.435547 1000.212646,859.504517 1000.212646,876.000244 
	C1011.808167,876.000244 1023.256104,876.000244 1034.703979,876.000183 
	C1044.701416,876.000183 1054.699463,876.055847 1064.696045,875.963562 
	C1067.449585,875.938110 1069.085571,876.436584 1069.049072,879.746033 
	C1068.921997,891.226746 1069.000000,902.709656 1069.000000,914.999756 
	C1055.991943,914.999756 1043.245972,914.999756 1030.000000,914.999756 
z"/>
<path fill="#1DBEC7" opacity="1.000000" stroke="none" 
	d="
M440.015961,971.000000 
	C440.015961,983.794800 440.015961,996.089600 440.015961,1008.693604 
	C426.676758,1008.693604 413.748260,1008.693604 399.976715,1008.693604 
	C399.976715,1007.056335 399.974915,1005.316406 399.976990,1003.576416 
	C400.007324,978.083313 399.590088,952.578308 400.271729,927.102600 
	C400.578888,915.624023 396.207672,905.744629 392.725952,895.492615 
	C381.092804,861.238464 369.170197,827.082642 357.382599,792.880859 
	C357.012970,791.808411 356.908051,790.644714 356.619171,789.226135 
	C369.620239,789.226135 382.383392,789.226135 395.740509,789.226135 
	C403.712402,817.147583 411.738556,845.259033 420.159027,874.751587 
	C427.383026,849.801819 434.303375,826.327942 440.951477,802.777161 
	C444.833008,789.027039 444.637207,788.966370 458.972748,788.973572 
	C466.802490,788.977478 474.632233,789.000061 482.461914,789.031555 
	C482.777557,789.032776 483.092468,789.212097 484.139282,789.532104 
	C482.967438,793.182556 481.878326,796.864319 480.609467,800.483154 
	C467.546753,837.738159 454.427216,874.973267 441.431213,912.251526 
	C440.524353,914.852844 440.105377,917.749817 440.084747,920.513916 
	C439.960541,937.175232 440.018799,953.837830 440.015961,971.000000 
z"/>
<path fill="#1DBFC7" opacity="1.000000" stroke="none" 
	d="
M1016.101257,1108.000000 
	C1016.101196,1090.224487 1016.101196,1072.948975 1016.101196,1055.418579 
	C1018.513245,1055.217651 1019.783264,1055.021851 1021.053711,1055.019653 
	C1035.707764,1054.994019 1050.361694,1054.978516 1065.015747,1054.998535 
	C1086.347290,1055.027710 1105.683105,1070.369873 1110.535767,1091.091797 
	C1113.992310,1105.851929 1109.672363,1118.483521 1099.886963,1129.565430 
	C1098.797363,1130.799438 1097.342041,1131.710571 1097.208252,1131.820923 
	C1101.452026,1140.776367 1106.686401,1148.481323 1108.793213,1156.963135 
	C1113.179077,1174.620239 1108.225708,1190.190674 1094.780273,1202.969360 
	C1084.422607,1212.813232 1071.952515,1216.578003 1058.129272,1216.776978 
	C1045.809326,1216.954468 1033.481323,1216.640503 1021.163940,1216.891968 
	C1016.874268,1216.979492 1015.876282,1215.453491 1015.897522,1211.408081 
	C1016.078064,1177.105957 1016.059875,1142.802856 1016.101257,1108.000000 
M1062.872681,1147.174561 
	C1058.385010,1147.122803 1053.886475,1147.242554 1049.412964,1146.963989 
	C1045.963257,1146.749023 1045.122192,1148.424438 1045.132080,1151.404297 
	C1045.153442,1157.889893 1045.029785,1164.375732 1044.999390,1170.861694 
	C1044.973145,1176.453735 1044.993774,1182.045898 1044.993774,1188.010742 
	C1050.839600,1188.010742 1055.968140,1188.033447 1061.096436,1188.005249 
	C1068.644775,1187.963623 1076.916138,1182.252441 1079.706543,1175.195312 
	C1084.497192,1163.079590 1077.459961,1150.902710 1062.872681,1147.174561 
M1045.689819,1114.392456 
	C1045.809692,1115.816162 1045.929565,1117.239868 1046.080444,1119.031616 
	C1052.603271,1119.031616 1058.740723,1119.095215 1064.876221,1119.016113 
	C1073.330444,1118.907104 1081.151611,1111.391968 1082.088135,1103.318115 
	C1083.492798,1091.211792 1074.390991,1084.089844 1067.553101,1083.245361 
	C1060.545044,1082.380005 1053.347168,1083.053589 1045.679810,1083.053589 
	C1045.679810,1093.515015 1045.679810,1103.462524 1045.689819,1114.392456 
z"/>
<path fill="#000000" opacity="1.000000" stroke="none" 
	d="
M402.000000,138.000488 
	C290.194580,138.000488 178.889160,138.000488 67.291847,138.000488 
	C67.291847,127.725975 67.291847,117.653030 67.291847,107.288681 
	C187.283020,107.288681 307.349304,107.288681 427.707825,107.288681 
	C427.707825,117.275879 427.707825,127.348808 427.707825,138.000488 
	C419.363434,138.000488 410.931732,138.000488 402.000000,138.000488 
z"/>
<path fill="#010101" opacity="1.000000" stroke="none" 
	d="
M593.999573,1129.000000 
	C593.999573,1104.200317 593.999573,1079.900635 593.999573,1055.239624 
	C595.598145,1055.153564 597.029968,1055.010986 598.461853,1055.009399 
	C613.785522,1054.993164 629.111755,1054.822021 644.432251,1055.042114 
	C666.214355,1055.354980 686.357666,1069.986450 690.642517,1092.363159 
	C693.484070,1107.202637 689.600891,1121.127441 678.942688,1132.535156 
	C678.047546,1133.493286 676.763062,1134.087524 675.651062,1134.856567 
	C685.409912,1145.224365 689.298645,1156.767334 689.064026,1170.034668 
	C688.793579,1185.330688 689.001160,1200.635132 689.001160,1216.316895 
	C679.252380,1216.316895 669.860840,1216.316895 659.999451,1216.316895 
	C659.999451,1200.406006 660.265503,1184.620361 659.819702,1168.854858 
	C659.702515,1164.710449 657.793030,1160.435669 655.979797,1156.560913 
	C652.955261,1150.097778 646.675537,1147.952515 640.290039,1147.148315 
	C634.753296,1146.451050 629.059265,1147.003296 623.001648,1147.003296 
	C623.001648,1159.791138 623.001892,1172.231812 623.001587,1184.672485 
	C623.001282,1193.999878 622.967163,1203.327637 623.024414,1212.654663 
	C623.037781,1214.835938 622.976624,1216.709106 620.080444,1216.703857 
	C611.455261,1216.688354 602.830017,1216.698364 593.999573,1216.698364 
	C593.999573,1187.329224 593.999573,1158.414673 593.999573,1129.000000 
M623.000183,1088.600220 
	C623.000183,1098.674316 623.000183,1108.748535 623.000183,1119.000000 
	C630.240051,1119.000000 636.926147,1118.484131 643.498352,1119.129028 
	C651.940613,1119.957397 660.991638,1111.532959 661.967041,1105.196045 
	C663.601807,1094.577026 659.176086,1086.336914 648.995911,1084.225342 
	C640.742920,1082.513672 632.026672,1083.034912 623.000000,1082.537354 
	C623.000000,1084.727417 623.000000,1086.175171 623.000183,1088.600220 
z"/>
<path fill="#1EBEC6" opacity="1.000000" stroke="none" 
	d="
M552.000000,138.038940 
	C533.195129,138.038940 514.890320,138.038940 496.130524,138.038940 
	C496.130524,127.640327 496.130524,117.619804 496.130524,107.289062 
	C615.998779,107.289062 735.716248,107.289062 855.732300,107.289062 
	C855.732300,117.412071 855.732300,127.329063 855.732300,138.038925 
	C754.637756,138.038925 653.568909,138.038925 552.000000,138.038940 
M723.500000,109.997864 
	C766.767517,109.997864 810.034973,109.997864 853.302490,109.997864 
	C853.298828,109.565254 853.295166,109.132652 853.291504,108.700043 
	C734.764526,108.700043 616.237549,108.700043 497.710602,108.700043 
	C497.710693,109.132645 497.710815,109.565254 497.710938,109.997856 
	C572.640625,109.997856 647.570312,109.997856 723.500000,109.997864 
z"/>
<path fill="#010101" opacity="1.000000" stroke="none" 
	d="
M705.085327,1124.999390 
	C705.383484,1114.859619 705.564636,1105.215332 705.977234,1095.581055 
	C706.757812,1077.355713 716.458557,1064.612061 732.312317,1057.273438 
	C760.255371,1044.338745 791.098206,1058.856323 798.762573,1089.335083 
	C799.878601,1093.773193 799.924194,1098.555298 799.946960,1103.180786 
	C800.060059,1126.175049 800.001709,1149.169922 799.999817,1172.164673 
	C799.997864,1195.396118 781.378418,1214.557617 760.515442,1218.210327 
	C736.062439,1222.491455 712.221375,1205.672852 706.394409,1182.763062 
	C705.388733,1178.808716 705.096436,1174.588989 705.060852,1170.486938 
	C704.930664,1155.492310 705.048462,1140.495361 705.085327,1124.999390 
M770.537598,1131.513550 
	C770.360046,1119.700439 770.246094,1107.885864 769.983643,1096.074707 
	C769.794006,1087.544800 761.440613,1080.138184 752.405396,1080.298706 
	C743.185852,1080.462646 735.050293,1087.849854 735.026184,1096.389038 
	C734.952515,1122.554688 734.920105,1148.721069 735.041870,1174.886353 
	C735.085754,1184.320312 746.447998,1192.631836 755.478760,1190.504150 
	C765.609314,1188.117310 770.888245,1179.921143 770.942932,1170.443604 
	C771.015930,1157.801392 770.691345,1145.156738 770.537598,1131.513550 
z"/>
<path fill="#1DBFC7" opacity="1.000000" stroke="none" 
	d="
M1198.248779,1138.714600 
	C1217.970825,1152.076050 1221.071777,1178.879028 1207.734131,1198.510864 
	C1191.259766,1222.759888 1156.731445,1225.868286 1135.723511,1205.444336 
	C1123.625732,1193.682983 1120.272705,1179.271729 1121.136841,1163.285034 
	C1121.198853,1162.136841 1123.171753,1160.190186 1124.312988,1160.147949 
	C1131.965576,1159.864380 1139.634033,1160.045044 1147.296265,1159.968018 
	C1150.156128,1159.939209 1151.106934,1161.305664 1151.023682,1163.972412 
	C1150.925049,1167.134399 1151.020142,1170.302002 1151.014404,1173.467163 
	C1151.000977,1180.951172 1154.823242,1185.897705 1161.328247,1189.062500 
	C1168.287354,1192.448242 1174.694824,1190.908569 1180.205200,1186.147583 
	C1185.660767,1181.433838 1187.718628,1174.925537 1185.479614,1168.155396 
	C1184.393555,1164.871460 1181.307251,1161.606567 1178.264404,1159.734375 
	C1169.541992,1154.367676 1160.449707,1149.582275 1151.373169,1144.815552 
	C1136.786865,1137.155151 1126.317383,1126.519531 1122.706665,1109.674805 
	C1117.253174,1084.233154 1132.144897,1059.939331 1157.482300,1054.017334 
	C1183.353760,1047.970581 1209.245728,1063.547974 1214.516235,1089.516113 
	C1216.328979,1098.448242 1214.804321,1108.057861 1214.804321,1117.785889 
	C1205.726685,1117.785889 1196.518188,1117.785889 1185.963501,1117.785889 
	C1185.963501,1111.092896 1185.984009,1104.496094 1185.958618,1097.899414 
	C1185.923218,1088.746460 1179.869507,1081.803589 1170.492920,1080.113037 
	C1163.377075,1078.830200 1154.142578,1084.888550 1151.585693,1092.517456 
	C1148.395996,1102.034668 1152.072021,1112.507568 1161.252930,1117.895508 
	C1170.654541,1123.412964 1180.461304,1128.237183 1190.038818,1133.459839 
	C1192.783325,1134.956421 1195.347778,1136.783203 1198.248779,1138.714600 
z"/>
<path fill="#010101" opacity="1.000000" stroke="none" 
	d="
M386.027802,1191.188721 
	C388.033356,1180.684570 390.052856,1170.624512 391.986877,1160.548096 
	C395.269623,1143.444458 398.540741,1126.338379 401.737915,1109.218506 
	C404.876190,1092.414185 407.995605,1075.605469 410.915771,1058.762573 
	C411.365906,1056.166504 411.989655,1054.928711 414.823944,1054.955688 
	C425.975159,1055.061646 437.127930,1054.999146 448.674622,1054.999146 
	C458.324707,1108.739014 467.952911,1162.356934 477.708984,1216.687012 
	C468.261780,1216.687012 459.650055,1216.795654 451.048798,1216.544922 
	C450.013977,1216.514771 448.388824,1214.667480 448.144989,1213.441895 
	C447.161621,1208.499756 446.612671,1203.471191 445.881592,1198.321533 
	C435.000305,1198.321533 424.377869,1198.321533 413.379395,1198.321533 
	C412.594086,1203.203613 411.557007,1208.130981 411.102814,1213.111572 
	C410.873596,1215.625122 410.233368,1216.741211 407.648773,1216.721924 
	C399.336151,1216.659912 391.022736,1216.698853 381.668732,1216.698853 
	C383.163483,1208.052368 384.583405,1199.838989 386.027802,1191.188721 
M428.992218,1106.836670 
	C427.947815,1113.940918 427.023712,1121.065430 425.834167,1128.145264 
	C423.306396,1143.190186 420.640533,1158.211914 418.001434,1173.415161 
	C425.821625,1173.415161 433.261597,1173.415161 441.077972,1173.415161 
	C437.499908,1149.905273 433.965363,1126.681274 430.430817,1103.457275 
	C430.025818,1103.509766 429.620850,1103.562256 429.215851,1103.614746 
	C429.141632,1104.412598 429.067413,1105.210571 428.992218,1106.836670 
z"/>
<path fill="#1DBFC7" opacity="1.000000" stroke="none" 
	d="
M929.586182,1216.791138 
	C921.237976,1216.787354 913.348511,1216.787354 904.958801,1216.787354 
	C915.168884,1162.236938 925.170227,1108.801514 935.236755,1055.017822 
	C946.788269,1055.017822 958.087891,1054.903931 969.378052,1055.178833 
	C970.623779,1055.209106 972.645935,1057.307373 972.908875,1058.708862 
	C977.681946,1084.152222 982.257935,1109.632446 986.839661,1135.111450 
	C991.509277,1161.079224 996.129944,1187.055664 1000.802185,1213.022827 
	C1001.248169,1215.501953 1000.645020,1216.853638 997.846985,1216.831787 
	C990.350220,1216.773071 982.847412,1216.953735 975.360840,1216.671997 
	C974.183228,1216.627686 972.426758,1214.850708 972.063049,1213.558105 
	C971.041870,1209.929321 970.138672,1206.143188 970.073853,1202.403687 
	C970.007629,1198.579712 968.241089,1198.036621 965.112976,1198.087646 
	C957.117859,1198.218262 949.109558,1198.401489 941.127136,1198.069580 
	C937.459534,1197.916870 936.466125,1199.682739 936.061646,1202.574097 
	C935.650757,1205.511230 935.500488,1208.492798 934.942932,1211.398804 
	C934.429016,1214.077515 934.247192,1217.343384 929.586182,1216.791138 
M957.004761,1123.438477 
	C955.908691,1116.307007 954.812561,1109.175659 953.592346,1101.236450 
	C949.559509,1125.802856 945.670349,1149.493896 941.739746,1173.437500 
	C949.936401,1173.437500 956.990234,1173.437500 964.458252,1173.437500 
	C962.247864,1158.100586 960.100220,1143.132935 957.917786,1128.170288 
	C957.728394,1126.872070 957.309937,1125.607300 957.004761,1123.438477 
z"/>
<path fill="#010101" opacity="1.000000" stroke="none" 
	d="
M492.998779,1165.000000 
	C492.998779,1128.208252 492.998779,1091.916626 492.998779,1055.312012 
	C519.222351,1055.312012 545.281616,1055.312012 571.671509,1055.312012 
	C571.671509,1064.195923 571.671509,1073.266235 571.671509,1082.730469 
	C555.474182,1082.730469 539.073914,1082.730469 522.338379,1082.730469 
	C522.338379,1094.846313 522.338379,1106.581299 522.338379,1118.749268 
	C538.499695,1118.749268 554.895325,1118.749268 571.644653,1118.749268 
	C571.644653,1128.371826 571.644653,1137.570679 571.644653,1147.040405 
	C555.315796,1147.040405 539.049011,1147.040405 522.392456,1147.040405 
	C522.392456,1160.670898 522.392456,1174.045654 522.392456,1187.812256 
	C538.612793,1187.812256 555.013245,1187.812256 571.706238,1187.812256 
	C571.706238,1197.440063 571.706238,1206.687256 571.706238,1216.320557 
	C545.602661,1216.320557 519.412048,1216.320557 492.998779,1216.320557 
	C492.998779,1199.342041 492.998779,1182.421021 492.998779,1165.000000 
z"/>
<path fill="#1DBFC7" opacity="1.000000" stroke="none" 
	d="
M834.006836,1216.793945 
	C829.511597,1216.796875 825.482178,1217.088013 821.536865,1216.639282 
	C820.237549,1216.491577 818.832092,1214.601929 818.082092,1213.187134 
	C817.529541,1212.144775 817.958557,1210.579590 817.958496,1209.247314 
	C817.958008,1159.621460 817.958435,1109.995483 817.958740,1060.369629 
	C817.958740,1058.890015 817.958801,1057.410522 817.958801,1055.445312 
	C827.643555,1055.445312 837.009888,1055.445312 846.997437,1055.445312 
	C846.997437,1099.429321 846.997437,1143.447021 846.997437,1187.941162 
	C864.173218,1187.941162 880.746277,1187.941162 897.977051,1187.941162 
	C897.977051,1197.003784 898.131348,1205.606323 897.756836,1214.185913 
	C897.715942,1215.123169 894.637329,1216.665527 892.956299,1216.680664 
	C873.473877,1216.857178 853.989380,1216.793823 834.006836,1216.793945 
z"/>
<path fill="#1EBFC7" opacity="1.000000" stroke="none" 
	d="
M1208.459106,665.823120 
	C1196.006226,659.245056 1183.707153,652.278015 1171.532104,645.100952 
	C1170.305298,644.377869 1169.128784,642.394470 1169.109741,640.980042 
	C1168.926880,627.353149 1168.865479,613.720032 1169.162476,600.097229 
	C1169.199463,598.399780 1171.170654,596.167236 1172.836548,595.175598 
	C1184.418213,588.281433 1196.156006,581.649719 1208.177368,574.915405 
	C1208.620850,580.688049 1208.829224,586.479370 1208.823608,592.270386 
	C1208.799805,616.638550 1208.712280,641.006714 1208.459106,665.823120 
z"/>
<path fill="#FFFFFF" opacity="1.000000" stroke="none" 
	d="
M892.828247,956.702087 
	C887.118164,965.032654 879.808655,969.894592 869.824951,969.987427 
	C862.709351,970.053528 855.592651,970.000305 848.239990,970.000305 
	C848.239990,951.325378 848.239990,932.962036 848.239990,913.143494 
	C858.440735,914.116394 868.748169,913.620178 878.137207,916.318848 
	C895.012329,921.169128 902.642456,941.196655 892.828247,956.702087 
z"/>
<path fill="#FCFCFC" opacity="1.000000" stroke="none" 
	d="
M899.000610,849.271606 
	C899.483887,862.779358 888.489624,876.698303 872.765442,876.061340 
	C864.800903,875.738770 856.812561,876.004944 848.492798,876.004944 
	C848.492798,859.476196 848.492798,843.121643 848.492798,827.053345 
	C859.083618,827.053345 869.880615,825.620483 880.095032,827.446594 
	C890.833252,829.366394 896.909424,837.953552 899.000610,849.271606 
z"/>
<path fill="#FFFFFF" opacity="1.000000" stroke="none" 
	d="
M563.984314,876.000061 
	C556.522644,876.000061 549.558167,876.000061 542.297363,876.000061 
	C542.297363,859.756958 542.297363,843.710449 542.297363,827.961670 
	C554.090332,827.961670 566.309875,826.395569 577.920532,828.384399 
	C590.545471,830.547058 596.360535,840.726562 596.000244,853.922729 
	C595.746948,863.196411 587.010620,873.199219 576.385193,875.588135 
	C572.578857,876.443909 568.458496,875.903320 563.984314,876.000061 
z"/>
<path fill="#FFFFFF" opacity="1.000000" stroke="none" 
	d="
M742.999878,849.102966 
	C743.332886,882.362732 743.907471,915.135193 743.882874,947.907166 
	C743.872681,961.472656 734.208313,972.450623 720.064697,973.946411 
	C708.264526,975.194397 695.039490,963.124451 695.020081,951.234253 
	C694.962524,915.922607 694.977356,880.610657 695.023071,845.298950 
	C695.034424,836.551514 701.902405,827.834045 711.178589,824.520874 
	C721.171936,820.951477 731.034607,824.450623 736.755798,830.754456 
	C741.329468,835.794006 743.793091,841.657288 742.999878,849.102966 
z"/>
<path fill="#FAFEFE" opacity="1.000000" stroke="none" 
	d="
M1063.280151,1147.325806 
	C1077.459961,1150.902710 1084.497192,1163.079590 1079.706543,1175.195312 
	C1076.916138,1182.252441 1068.644775,1187.963623 1061.096436,1188.005249 
	C1055.968140,1188.033447 1050.839600,1188.010742 1044.993774,1188.010742 
	C1044.993774,1182.045898 1044.973145,1176.453735 1044.999390,1170.861694 
	C1045.029785,1164.375732 1045.153442,1157.889893 1045.132080,1151.404297 
	C1045.122192,1148.424438 1045.963257,1146.749023 1049.412964,1146.963989 
	C1053.886475,1147.242554 1058.385010,1147.122803 1063.280151,1147.325806 
z"/>
<path fill="#FAFEFE" opacity="1.000000" stroke="none" 
	d="
M1045.684814,1113.901245 
	C1045.679810,1103.462524 1045.679810,1093.515015 1045.679810,1083.053589 
	C1053.347168,1083.053589 1060.545044,1082.380005 1067.553101,1083.245361 
	C1074.390991,1084.089844 1083.492798,1091.211792 1082.088135,1103.318115 
	C1081.151611,1111.391968 1073.330444,1118.907104 1064.876221,1119.016113 
	C1058.740723,1119.095215 1052.603271,1119.031616 1046.080444,1119.031616 
	C1045.929565,1117.239868 1045.809692,1115.816162 1045.684814,1113.901245 
z"/>
<path fill="#FFFFFF" opacity="1.000000" stroke="none" 
	d="
M623.000122,1088.111572 
	C623.000000,1086.175171 623.000000,1084.727417 623.000000,1082.537354 
	C632.026672,1083.034912 640.742920,1082.513672 648.995911,1084.225342 
	C659.176086,1086.336914 663.601807,1094.577026 661.967041,1105.196045 
	C660.991638,1111.532959 651.940613,1119.957397 643.498352,1119.129028 
	C636.926147,1118.484131 630.240051,1119.000000 623.000183,1119.000000 
	C623.000183,1108.748535 623.000183,1098.674316 623.000122,1088.111572 
z"/>
<path fill="#0EC5D0" opacity="1.000000" stroke="none" 
	d="
M723.000000,109.997864 
	C647.570312,109.997856 572.640625,109.997856 497.710938,109.997856 
	C497.710815,109.565254 497.710693,109.132645 497.710602,108.700043 
	C616.237549,108.700043 734.764526,108.700043 853.291504,108.700043 
	C853.295166,109.132652 853.298828,109.565254 853.302490,109.997864 
	C810.034973,109.997864 766.767517,109.997864 723.000000,109.997864 
z"/>
<path fill="#FEFEFE" opacity="1.000000" stroke="none" 
	d="
M770.537537,1132.013428 
	C770.691345,1145.156738 771.015930,1157.801392 770.942932,1170.443604 
	C770.888245,1179.921143 765.609314,1188.117310 755.478760,1190.504150 
	C746.447998,1192.631836 735.085754,1184.320312 735.041870,1174.886353 
	C734.920105,1148.721069 734.952515,1122.554688 735.026184,1096.389038 
	C735.050293,1087.849854 743.185852,1080.462646 752.405396,1080.298706 
	C761.440613,1080.138184 769.794006,1087.544800 769.983643,1096.074707 
	C770.246094,1107.885864 770.360046,1119.700439 770.537537,1132.013428 
z"/>
<path fill="#FAFAFA" opacity="1.000000" stroke="none" 
	d="
M428.992676,1106.422607 
	C429.067413,1105.210571 429.141632,1104.412598 429.215851,1103.614746 
	C429.620850,1103.562256 430.025818,1103.509766 430.430817,1103.457275 
	C433.965363,1126.681274 437.499908,1149.905273 441.077972,1173.415161 
	C433.261597,1173.415161 425.821625,1173.415161 418.001434,1173.415161 
	C420.640533,1158.211914 423.306396,1143.190186 425.834167,1128.145264 
	C427.023712,1121.065430 427.947815,1113.940918 428.992676,1106.422607 
z"/>
<path fill="#F4FDFD" opacity="1.000000" stroke="none" 
	d="
M957.001343,1123.882690 
	C957.309937,1125.607300 957.728394,1126.872070 957.917786,1128.170288 
	C960.100220,1143.132935 962.247864,1158.100586 964.458252,1173.437500 
	C956.990234,1173.437500 949.936401,1173.437500 941.739746,1173.437500 
	C945.670349,1149.493896 949.559509,1125.802856 953.592346,1101.236450 
	C954.812561,1109.175659 955.908691,1116.307007 957.001343,1123.882690 
z"/>
</svg>