<svg version="1.1" id="Layer_1" xmlns="http://www.w3.org/2000/svg" xmlns:xlink="http://www.w3.org/1999/xlink" x="0px" y="0px"
	 width="100%" viewBox="0 0 504 504" enable-background="new 0 0 504 504" xml:space="preserve">
<path fill="#22B14C" opacity="1.000000" stroke="none" 
	d="
M339.000000,505.000000 
	C226.000031,505.000000 113.500053,505.000000 1.000060,505.000000 
	C1.000040,337.000061 1.000040,169.000137 1.000020,1.000151 
	C168.999893,1.000100 336.999786,1.000100 504.999756,1.000050 
	C504.999817,168.999863 504.999817,336.999725 504.999908,504.999786 
	C449.833344,505.000000 394.666656,505.000000 339.000000,505.000000 
M287.907867,418.569244 
	C297.885620,415.392090 308.213898,413.022400 317.769928,408.873840 
	C339.268616,399.540619 358.112091,386.379395 373.977234,368.760010 
	C388.771545,352.329834 399.441559,333.760040 407.068237,313.191467 
	C414.279816,293.742432 415.354492,273.630768 415.217438,253.098984 
	C415.087097,233.572067 410.546753,215.276901 403.107758,197.606735 
	C392.305878,171.948456 375.591461,150.612411 353.785004,133.314575 
	C338.285706,121.019844 320.918579,111.944710 302.092041,106.270287 
	C281.646301,100.107826 260.706085,97.575821 239.133087,99.805931 
	C220.265335,101.756386 202.326019,106.421097 185.286560,114.417824 
	C166.360733,123.299835 149.791626,135.469742 135.449127,150.857468 
	C126.152702,160.831375 118.273529,171.661057 111.816521,183.566803 
	C101.032600,203.450714 94.730293,224.557602 92.709663,247.250916 
	C91.475243,261.114594 92.235512,274.718262 94.344238,288.199707 
	C97.125755,305.982422 103.614609,322.701233 112.214340,338.555206 
	C119.656425,352.275085 128.998993,364.764221 140.258621,375.329742 
	C149.892593,384.369873 160.842010,392.246063 172.031174,399.341553 
	C195.455887,414.196106 221.560257,421.308167 249.158234,421.786682 
	C261.787292,422.005676 274.456116,419.929565 287.907867,418.569244 
z"/>
<path fill="#000000" opacity="1.000000" stroke="none" 
	d="
M287.507385,418.731812 
	C274.456116,419.929565 261.787292,422.005676 249.158234,421.786682 
	C221.560257,421.308167 195.455887,414.196106 172.031174,399.341553 
	C160.842010,392.246063 149.892593,384.369873 140.258621,375.329742 
	C128.998993,364.764221 119.656425,352.275085 112.214340,338.555206 
	C103.614609,322.701233 97.125755,305.982422 94.344238,288.199707 
	C92.235512,274.718262 91.475243,261.114594 92.709663,247.250916 
	C94.730293,224.557602 101.032600,203.450714 111.816521,183.566803 
	C118.273529,171.661057 126.152702,160.831375 135.449127,150.857468 
	C149.791626,135.469742 166.360733,123.299835 185.286560,114.417824 
	C202.326019,106.421097 220.265335,101.756386 239.133087,99.805931 
	C260.706085,97.575821 281.646301,100.107826 302.092041,106.270287 
	C320.918579,111.944710 338.285706,121.019844 353.785004,133.314575 
	C375.591461,150.612411 392.305878,171.948456 403.107758,197.606735 
	C410.546753,215.276901 415.087097,233.572067 415.217438,253.098984 
	C415.354492,273.630768 414.279816,293.742432 407.068237,313.191467 
	C399.441559,333.760040 388.771545,352.329834 373.977234,368.760010 
	C358.112091,386.379395 339.268616,399.540619 317.769928,408.873840 
	C308.213898,413.022400 297.885620,415.392090 287.507385,418.731812 
M145.432114,148.043747 
	C142.566437,150.917252 139.584442,153.684845 136.855087,156.682465 
	C124.664543,170.071259 115.349182,185.271332 108.479698,202.007980 
	C99.900787,222.909454 96.237503,244.684479 97.068169,267.200958 
	C97.278587,272.904602 98.345551,278.575531 98.992859,284.264465 
	C100.568634,298.113495 104.850464,311.241028 110.494560,323.841980 
	C119.683701,344.357605 132.702682,362.150970 149.574005,377.181091 
	C163.249451,389.364075 178.583359,398.747345 195.410843,405.693573 
	C211.318314,412.260010 228.021912,416.008911 245.164352,416.889343 
	C267.128204,418.017334 288.523254,414.731506 309.242706,406.990295 
	C331.032104,398.849365 350.224457,386.536896 366.190948,369.900665 
	C375.147064,360.568909 382.670197,349.634521 389.615509,338.648682 
	C403.108368,317.306244 409.523590,293.437317 410.800842,268.394470 
	C411.334198,257.936890 409.908783,247.345322 408.946442,236.853897 
	C407.672913,222.969986 403.240326,209.831879 397.542603,197.264542 
	C388.635040,177.617340 376.423401,160.309814 360.352570,145.580917 
	C350.229065,136.302734 339.256744,128.395172 327.238403,122.186882 
	C299.815704,108.021194 270.741638,101.530647 239.662903,104.881973 
	C225.977173,106.357750 212.763504,109.043854 199.848755,113.883835 
	C179.558334,121.487938 161.242432,132.044281 145.432114,148.043747 
z"/>
<path fill="#B5E61D" opacity="1.000000" stroke="none" 
	d="
M145.694946,147.801163 
	C161.242432,132.044281 179.558334,121.487938 199.848755,113.883835 
	C212.763504,109.043854 225.977173,106.357750 239.662903,104.881973 
	C270.741638,101.530647 299.815704,108.021194 327.238403,122.186882 
	C339.256744,128.395172 350.229065,136.302734 360.352570,145.580917 
	C376.423401,160.309814 388.635040,177.617340 397.542603,197.264542 
	C403.240326,209.831879 407.672913,222.969986 408.946442,236.853897 
	C409.908783,247.345322 411.334198,257.936890 410.800842,268.394470 
	C409.523590,293.437317 403.108368,317.306244 389.615509,338.648682 
	C382.670197,349.634521 375.147064,360.568909 366.190948,369.900665 
	C350.224457,386.536896 331.032104,398.849365 309.242706,406.990295 
	C288.523254,414.731506 267.128204,418.017334 245.164352,416.889343 
	C228.021912,416.008911 211.318314,412.260010 195.410843,405.693573 
	C178.583359,398.747345 163.249451,389.364075 149.574005,377.181091 
	C132.702682,362.150970 119.683701,344.357605 110.494560,323.841980 
	C104.850464,311.241028 100.568634,298.113495 98.992859,284.264465 
	C98.345551,278.575531 97.278587,272.904602 97.068169,267.200958 
	C96.237503,244.684479 99.900787,222.909454 108.479698,202.007980 
	C115.349182,185.271332 124.664543,170.071259 136.855087,156.682465 
	C139.584442,153.684845 142.566437,150.917252 145.694946,147.801163 
z"/>
</svg>